<?xml version="1.0" encoding="UTF-8" standalone="no"?>
<!-- Created with Inkscape (http://www.inkscape.org/) -->

<svg
   xmlns:dc="http://purl.org/dc/elements/1.1/"
   xmlns:cc="http://creativecommons.org/ns#"
   xmlns:rdf="http://www.w3.org/1999/02/22-rdf-syntax-ns#"
   xmlns:svg="http://www.w3.org/2000/svg"
   xmlns="http://www.w3.org/2000/svg"
   xmlns:sodipodi="http://sodipodi.sourceforge.net/DTD/sodipodi-0.dtd"
   xmlns:inkscape="http://www.inkscape.org/namespaces/inkscape"
   width="744.09448"
   height="1052.3622"
   id="svg3023"
   version="1.1"
   inkscape:version="0.48.2 r9819"
   sodipodi:docname="ServoBox_ShortSide.svg">
  <defs
     id="defs3025" />
  <sodipodi:namedview
     id="base"
     pagecolor="#ffffff"
     bordercolor="#666666"
     borderopacity="1.0"
     inkscape:pageopacity="0.0"
     inkscape:pageshadow="2"
     inkscape:zoom="2.8"
     inkscape:cx="155.29708"
     inkscape:cy="926.98894"
     inkscape:document-units="cm"
     inkscape:current-layer="layer1"
     showgrid="true"
     units="cm"
     inkscape:window-width="1280"
     inkscape:window-height="964"
     inkscape:window-x="-4"
     inkscape:window-y="-4"
     inkscape:window-maximized="1"
     inkscape:snap-global="true"
     showguides="true"
     inkscape:guide-bbox="true">
    <inkscape:grid
       type="xygrid"
       id="grid3048"
       empspacing="5"
       visible="true"
       enabled="true"
       snapvisiblegridlinesonly="true"
       units="cm"
       spacingx="0.1cm"
       spacingy="0.1cm" />
  </sodipodi:namedview>
  <metadata
     id="metadata3028">
    <rdf:RDF>
      <cc:Work
         rdf:about="">
        <dc:format>image/svg+xml</dc:format>
        <dc:type
           rdf:resource="http://purl.org/dc/dcmitype/StillImage" />
        <dc:title />
      </cc:Work>
    </rdf:RDF>
  </metadata>
  <g
     inkscape:label="Layer 1"
     inkscape:groupmode="layer"
     id="layer1"
     transform="translate(0,0.00130762)">
    <path
       style="fill:none;stroke:#e90000;stroke-width:1.0629921;stroke-linecap:butt;stroke-linejoin:miter;stroke-miterlimit:4;stroke-opacity:1;stroke-dasharray:none;display:inline"
       d="m 219.57431,35.431742 0,177.165358 -191.338576,0 0,-177.165358 60.236218,0 0,-10.629922 70.866148,0 0,10.629922 z"
       id="path2997-7"
       inkscape:connector-curvature="0"
       sodipodi:nodetypes="cccc" />
    <path
       inkscape:connector-curvature="0"
       id="path54"
       d="m 87.369442,130.49836 1.56015,2.23971 0.66132,4.50141 0,0.007 c 1.64177,0.27138 3.233251,0.69206 4.757181,1.25316 l 2.67089,-3.46001 2.561271,-1.12173 3.730466,2.11917 0.25211,2.71838 -1.60034,4.12143 c 1.26563,1.04339 2.4316,2.20405 3.48201,3.46374 l 3.98989,-1.62589 2.77684,0.31779 2.16302,3.70496 -1.15093,2.48092 -3.36875,2.68541 c 0.60529,1.61033 1.05727,3.29574 1.33727,5.03854 l 3.98989,0.56636 2.2434,1.66973 0,4.28955 -2.2434,1.5638 -4.04104,0.59185 c -0.28753,1.66939 -0.732,3.28463 -1.319,4.83031 l 3.06184,2.44795 1.07785,2.5796 -2.18129,3.69385 -2.72204,0.20835 -3.59528,-1.46887 c -1.12953,1.35756 -2.39285,2.59925 -3.77066,3.70496 l 1.40669,3.60615 -0.35441,2.77322 -3.737777,2.10819 -2.46262,-1.18382 -2.38224,-3.08002 c -1.511491,0.54345 -3.087771,0.95348 -4.713331,1.21305 l -0.50787,3.58429 -1.67341,2.23971 -4.2895,0 -1.563801,-2.23971 -0.52979,-3.62089 c -1.56634,-0.264 -3.08622,-0.67006 -4.54526,-1.19843 l -2.34205,3.03266 -2.55761,1.12162 -3.73413,-2.11543 -0.25211,-2.72213 1.38111,-3.54407 c -1.36129,-1.09566 -2.6122,-2.32261 -3.73046,-3.66473 l -3.62086,1.47249 -2.77685,-0.31428 -2.16301,-3.70847 1.15093,-2.47729 3.04357,-2.42971 c -0.58938,-1.5486 -1.03403,-3.16817 -1.32266,-4.84119 l -4.13239,-0.58833 -2.24339,-1.67336 0,-4.28955 2.24339,-1.5638 4.08489,-0.59547 c 0.2969,-1.8381 0.78558,-3.61236 1.44323,-5.30161 l -3.34683,-2.67454 -1.07786,-2.5796 2.18129,-3.69385 2.72204,-0.20835 4.01911,1.64062 c 1.02738,-1.20311 2.16434,-2.30987 3.39068,-3.31035 l -1.58208,-4.04472 0.35807,-2.77311 3.73413,-2.10829 2.46262,1.18381 2.638,3.40903 c 1.43111,-0.52018 2.92271,-0.91431 4.45756,-1.18019 l 0,-0.0402 0.63941,-4.50142 1.669761,-2.23971 4.29315,0 z m 11.812551,13.62115 c -1.23564,-0.002 -3.53064,0.20929 -4.97274,1.63688 -1.05523,1.04456 -1.748911,2.0406 -2.071681,3.09475 -0.32276,1.05415 -0.28034,2.17552 0.17173,3.4966 l 0.0365,0.10593 -0.0804,0.0767 -3.52221,3.46749 1.50169,1.74643 -3.11299,1.4615 -0.70151,-0.93174 -0.53711,0.52989 0.55171,0.71975 -2.39684,1.29711 -0.10597,1.4249 -0.71978,-0.81107 -0.64671,0.63569 1.92186,3.05453 -2.678191,1.6661 -1.79034,-2.2141 -0.46036,0.45306 1.54553,1.81226 -1.46515,1.76841 -1.87437,-1.80863 -0.51153,0.50053 -0.004,0.007 -0.007,0.004 c 0,0 -0.74509,0.61512 -1.25323,1.44688 -0.25407,0.41588 -0.44631,0.88146 -0.46402,1.34096 -0.0177,0.45949 0.124,0.91314 0.56998,1.35919 0.44808,0.44803 0.92353,0.62773 1.39938,0.65393 0.47586,0.0263 0.95459,-0.10698 1.38477,-0.29955 0.20556,-0.092 0.39885,-0.19607 0.57364,-0.30329 l 0.23385,-0.82943 2.835301,-1.77928 7.26729,-6.48542 -0.29961,-0.82943 -1.86707,1.91818 -3.23356,-1.00843 0.0731,-1.49798 6.54385,-3.0509 1.414,2.11917 3.821811,-3.40892 0.0804,-0.0695 0.0987,0.0366 c 0,0 4.147277,1.52732 6.679037,-0.9792 1.3032,-1.29021 1.98909,-2.24779 2.32743,-3.20442 0.30511,-0.86252 0.32621,-1.75205 0.24846,-2.89739 l -5.05313,4.74261 -0.0731,0.0693 -0.095,-0.0292 -4.165267,-1.22766 -0.0913,-0.0255 -0.0256,-0.095 -1.22766,-4.17626 -0.0293,-0.0986 0.0767,-0.0768 4.647561,-4.49042 c -0.0982,-0.006 -0.0885,-0.0117 -0.233831,-0.0146 -0.0724,-0.002 -0.15147,-0.004 -0.23385,-0.004 z m -0.38364,2.04972 -2.76954,2.51378 0.78921,3.65374 3.562397,1.14359 2.76954,-2.51003 -0.78921,-3.65749 -3.562397,-1.14359 z m -30.048382,0.23384 -2.76953,2.51378 0.7892,3.65374 3.5624,1.14359 2.76954,-2.51003 -0.78921,-3.65749 -3.5624,-1.14359 z m 16.682991,2.32379 c -7.996271,0 -14.479781,6.48354 -14.479781,14.4798 0,5.97472 3.62138,11.10586 8.78725,13.31787 l -0.0438,-1.44326 -0.90978,-1.16183 0.54076,-1.92918 c -0.0947,0.05 -0.19075,0.10067 -0.29231,0.14615 -0.46444,0.20789 -0.99694,0.35567 -1.54919,0.32516 -0.55224,-0.0304 -1.12162,-0.24834 -1.62591,-0.75262 -0.50639,-0.50638 -0.69698,-1.07671 -0.67594,-1.62226 0.021,-0.54566 0.2414,-1.06093 0.51518,-1.50908 0.54083,-0.88521 1.30011,-1.50815 1.319,-1.52359 l 0.011,-0.0105 0.49325,-0.48604 -2.22147,-2.14104 1.71726,-2.37499 2.32377,2.72575 0.46769,-0.46043 -1.83053,-2.26532 -0.14981,-0.96084 2.62705,-2.375 1.929181,3.0619 0.60286,-0.59196 -1.925521,-2.16664 -0.15346,-1.21304 2.930301,-1.66611 1.83784,2.39685 0.54075,-0.5335 -1.66976,-2.21774 2.57589,-1.6661 1.39208,1.62225 3.43086,-3.37979 c -0.2619,-0.79915 -0.38008,-1.54439 -0.36172,-2.25071 -1.86794,-0.87876 -3.95209,-1.3738 -6.15291,-1.3738 z m 10.979491,8.26108 -3.785281,3.37606 2.937611,4.40646 c 0,0 -6.669921,9.19691 -6.518271,9.24766 0.0562,0.0187 0.27914,1.37368 0.5371,3.0654 5.973511,-1.78478 10.329132,-7.32339 10.329132,-13.87686 0,-2.04866 -0.423691,-3.99901 -1.191121,-5.76566 -1.2298,-0.0775 -2.1698,-0.40279 -2.30917,-0.45306 z m -6.485391,5.78752 -5.35638,4.77547 3.37605,-2.3274 2.14475,-1.98764 -0.16442,-0.46043 z m -3.18972,3.81088 -4.23834,2.81345 -0.16442,0.14615 -0.0402,2.18488 0.50787,-1.98764 3.93508,-3.15684 z m -9.079551,1.71732 c 0.88581,0 1.60765,0.72187 1.60765,1.60765 0,0.88578 -0.72184,1.60765 -1.60765,1.60765 -0.8858,0 -1.60765,-0.72187 -1.60765,-1.60765 0,-0.88578 0.72185,-1.60765 1.60765,-1.60765 z m 0,0.35076 c -0.69623,0 -1.25689,0.56064 -1.25689,1.25689 0,0.69626 0.56066,1.25689 1.25689,1.25689 0.69624,0 1.25689,-0.56063 1.25689,-1.25689 0,-0.69625 -0.56065,-1.25689 -1.25689,-1.25689 z m 21.180752,4.75712 -2.7732,2.51377 0.79287,3.65374 3.558747,1.1436 2.77319,-2.51003 -0.79287,-3.65749 -3.558737,-1.14359 z m -30.088572,0.0767 -2.76953,2.51378 0.7892,3.65375 3.5624,1.1437 2.76954,-2.51015 -0.78921,-3.65736 -3.5624,-1.14372 z"
       style="font-size:medium;font-style:normal;font-variant:normal;font-weight:normal;font-stretch:normal;text-indent:0;text-align:start;text-decoration:none;line-height:normal;letter-spacing:normal;word-spacing:normal;text-transform:none;direction:ltr;block-progression:tb;writing-mode:lr-tb;text-anchor:start;baseline-shift:baseline;color:#000000;fill:#00ff00;fill-opacity:1;stroke:none;stroke-width:3.01181102000000010;marker:none;visibility:visible;display:inline;overflow:visible;enable-background:accumulate;font-family:Sans;-inkscape-font-specification:Sans;stroke-miterlimit:4;stroke-dasharray:none" />
    <rect
       style="fill:none;stroke:#000000;stroke-width:1.0629921;stroke-miterlimit:4;stroke-opacity:1;stroke-dasharray:none"
       id="rect3163"
       width="170.07874"
       height="155.9055"
       x="38.865654"
       y="46.061676" />
  </g>
</svg>
