<?xml version="1.0" encoding="UTF-8" standalone="no"?>
<!-- Created with Inkscape (http://www.inkscape.org/) -->

<svg
   xmlns:dc="http://purl.org/dc/elements/1.1/"
   xmlns:cc="http://creativecommons.org/ns#"
   xmlns:rdf="http://www.w3.org/1999/02/22-rdf-syntax-ns#"
   xmlns:svg="http://www.w3.org/2000/svg"
   xmlns="http://www.w3.org/2000/svg"
   xmlns:sodipodi="http://sodipodi.sourceforge.net/DTD/sodipodi-0.dtd"
   xmlns:inkscape="http://www.inkscape.org/namespaces/inkscape"
   width="744.09448"
   height="1052.3622"
   id="svg3023"
   version="1.1"
   inkscape:version="0.48.2 r9819"
   sodipodi:docname="ServoBox_Top.svg">
  <defs
     id="defs3025" />
  <sodipodi:namedview
     id="base"
     pagecolor="#ffffff"
     bordercolor="#666666"
     borderopacity="1.0"
     inkscape:pageopacity="0.0"
     inkscape:pageshadow="2"
     inkscape:zoom="2.8"
     inkscape:cx="179.27519"
     inkscape:cy="934.54548"
     inkscape:document-units="cm"
     inkscape:current-layer="layer1"
     showgrid="true"
     units="cm"
     inkscape:window-width="1280"
     inkscape:window-height="964"
     inkscape:window-x="-4"
     inkscape:window-y="-4"
     inkscape:window-maximized="1">
    <inkscape:grid
       type="xygrid"
       id="grid3048"
       empspacing="5"
       visible="true"
       enabled="true"
       snapvisiblegridlinesonly="true"
       units="cm"
       spacingx="0.1cm"
       spacingy="0.1cm" />
  </sodipodi:namedview>
  <metadata
     id="metadata3028">
    <rdf:RDF>
      <cc:Work
         rdf:about="">
        <dc:format>image/svg+xml</dc:format>
        <dc:type
           rdf:resource="http://purl.org/dc/dcmitype/StillImage" />
        <dc:title />
      </cc:Work>
    </rdf:RDF>
  </metadata>
  <g
     inkscape:label="Layer 1"
     inkscape:groupmode="layer"
     id="layer1"
     transform="translate(0,0.00130762)">
    <path
       style="fill:none;stroke:#e90000;stroke-width:1.06299213;stroke-linecap:butt;stroke-linejoin:miter;stroke-miterlimit:4;stroke-opacity:1;stroke-dasharray:none;display:inline"
       d="m 35.433071,24.80182 106.299219,0 0,10.62992 106.29921,0 0,-10.62992 106.29921,0 0,70.866139 -10.62992,0 0,70.866151 10.62992,0 0,70.86614 -106.29921,0 0,-10.62992 -106.29921,0 0,10.62992 -106.299219,0 0,-70.86614 10.629922,0 0,-70.866151 -10.629922,0 z"
       id="path2997"
       inkscape:connector-curvature="0"
       sodipodi:nodetypes="ccccccccccccccccccccc" />
    <rect
       style="fill:none;stroke:#e90000;stroke-width:1.08941257;stroke-miterlimit:4;stroke-opacity:1;stroke-dasharray:none;display:inline"
       id="rect2999"
       width="148.81889"
       height="70.777756"
       x="102.75591"
       y="95.667953" />
    <path
       sodipodi:type="arc"
       style="fill:none;stroke:#e90000;stroke-width:1.16748178;stroke-miterlimit:4;stroke-opacity:1;stroke-dasharray:none;display:inline"
       id="path3775-7-5"
       sodipodi:cx="140.77942"
       sodipodi:cy="44.8153"
       sodipodi:rx="4.2173581"
       sodipodi:ry="4.2173581"
       d="m 144.99678,44.8153 a 4.2173581,4.2173581 0 1 1 -8.43472,0 4.2173581,4.2173581 0 1 1 8.43472,0 z"
       transform="matrix(0.78120898,0,0,0.78120893,-21.005343,113.71283)" />
    <path
       sodipodi:type="arc"
       style="fill:none;stroke:#e90000;stroke-width:1.16748178;stroke-miterlimit:4;stroke-opacity:1;stroke-dasharray:none;display:inline"
       id="path3775-7-4"
       sodipodi:cx="140.77942"
       sodipodi:cy="44.8153"
       sodipodi:rx="4.2173581"
       sodipodi:ry="4.2173581"
       d="m 144.99678,44.8153 a 4.2173581,4.2173581 0 1 1 -8.43472,0 4.2173581,4.2173581 0 1 1 8.43472,0 z"
       transform="matrix(0.78120898,0,0,0.78120893,155.72949,78.389609)" />
    <path
       sodipodi:type="arc"
       style="fill:none;stroke:#e90000;stroke-width:1.16748178;stroke-miterlimit:4;stroke-opacity:1;stroke-dasharray:none;display:inline"
       id="path3775-7-41"
       sodipodi:cx="140.77942"
       sodipodi:cy="44.8153"
       sodipodi:rx="4.2173581"
       sodipodi:ry="4.2173581"
       d="m 144.99678,44.8153 a 4.2173581,4.2173581 0 1 1 -8.43472,0 4.2173581,4.2173581 0 1 1 8.43472,0 z"
       transform="matrix(0.78120898,0,0,0.78120893,155.72949,113.63961)" />
    <path
       sodipodi:type="arc"
       style="fill:none;stroke:#e90000;stroke-width:1.16748178;stroke-miterlimit:4;stroke-opacity:1;stroke-dasharray:none;display:inline"
       id="path3775-7-5-1"
       sodipodi:cx="140.77942"
       sodipodi:cy="44.8153"
       sodipodi:rx="4.2173581"
       sodipodi:ry="4.2173581"
       d="m 144.99678,44.8153 a 4.2173581,4.2173581 0 1 1 -8.43472,0 4.2173581,4.2173581 0 1 1 8.43472,0 z"
       transform="matrix(0.78120898,0,0,0.78120893,-21.395468,78.374383)" />
  </g>
</svg>
